<svg viewBox="0 0 1320 756" xmlns="http://www.w3.org/2000/svg" font-family="Segoe UI, Arial, sans-serif">
  <defs>
    <marker id="arr" viewBox="0 0 10 10" refX="8.5" refY="5" markerWidth="7" markerHeight="7" orient="auto-start-reverse">
      <path d="M 0 0 L 10 5 L 0 10 z" fill="#94a3b8" />
    </marker>
    <marker id="arr-orange" viewBox="0 0 10 10" refX="8.5" refY="5" markerWidth="7" markerHeight="7" orient="auto-start-reverse">
      <path d="M 0 0 L 10 5 L 0 10 z" fill="#ea580c" />
    </marker>
  </defs>

  <rect width="1320" height="756" fill="#f4f6f8" />

  <!-- Source -->
  <rect x="520" y="14" width="280" height="48" rx="12" fill="#ffffff" stroke="#94a3b8" stroke-width="1.5" />
  <text x="660" y="34" text-anchor="middle" font-size="14.5" font-weight="700" fill="#1f2937">Broadcast Match Video</text>
  <text x="660" y="51" text-anchor="middle" font-size="11" fill="#64748b">single tactical camera &#183; Full HD &#183; source clock</text>
  <line x1="660" y1="62" x2="660" y2="88" stroke="#94a3b8" stroke-width="1.5" marker-end="url(#arr)" />

  <!-- CUDA bar -->
  <rect x="180" y="92" width="960" height="42" rx="21" fill="#0d1117" />
  <text x="660" y="118" text-anchor="middle" font-size="14" font-weight="700" fill="#ffffff">SHARED CUDA CONTEXT &#8212; 6 TensorRT FP16 engines in parallel &#183; thread pool + pycuda &#183; RTX 4060</text>

  <!-- fan to perception -->
  <line x1="660" y1="134" x2="660" y2="158" stroke="#94a3b8" stroke-width="1.5" />
  <line x1="185" y1="158" x2="1135" y2="158" stroke="#94a3b8" stroke-width="1.5" />
  <line x1="185" y1="158" x2="185" y2="182" stroke="#94a3b8" stroke-width="1.5" marker-end="url(#arr)" />
  <line x1="375" y1="158" x2="375" y2="182" stroke="#94a3b8" stroke-width="1.5" marker-end="url(#arr)" />
  <line x1="565" y1="158" x2="565" y2="182" stroke="#94a3b8" stroke-width="1.5" marker-end="url(#arr)" />
  <line x1="755" y1="158" x2="755" y2="182" stroke="#94a3b8" stroke-width="1.5" marker-end="url(#arr)" />
  <line x1="945" y1="158" x2="945" y2="182" stroke="#94a3b8" stroke-width="1.5" marker-end="url(#arr)" />
  <line x1="1135" y1="158" x2="1135" y2="182" stroke="#94a3b8" stroke-width="1.5" marker-end="url(#arr)" />

  <!-- Perception row -->
  <rect x="95" y="186" width="180" height="76" rx="12" fill="#eef4fd" stroke="#3178c6" stroke-width="2" />
  <text x="185" y="217" text-anchor="middle" font-size="14" font-weight="700" fill="#1d4ed8">Player Detection</text>
  <text x="185" y="237" text-anchor="middle" font-size="11" fill="#64748b">players &#183; GKs &#183; referees</text>

  <rect x="285" y="186" width="180" height="76" rx="12" fill="#eef0fe" stroke="#6366f1" stroke-width="2" />
  <text x="375" y="217" text-anchor="middle" font-size="14" font-weight="700" fill="#4f46e5">Ball Detection</text>
  <text x="375" y="237" text-anchor="middle" font-size="11" fill="#64748b">dedicated model &#183; 1280 px</text>

  <rect x="475" y="186" width="180" height="76" rx="12" fill="#f3eefe" stroke="#8b5cf6" stroke-width="2" />
  <text x="565" y="217" text-anchor="middle" font-size="14" font-weight="700" fill="#7c3aed">Pose Estimation</text>
  <text x="565" y="237" text-anchor="middle" font-size="11" fill="#64748b">17 body keypoints</text>

  <rect x="665" y="186" width="180" height="76" rx="12" fill="#e6f7f4" stroke="#0d9488" stroke-width="2" />
  <text x="755" y="217" text-anchor="middle" font-size="14" font-weight="700" fill="#0f766e">Pitch Keypoints</text>
  <text x="755" y="237" text-anchor="middle" font-size="11" fill="#64748b">58-ch heatmaps &#183; geometry</text>

  <rect x="855" y="186" width="180" height="76" rx="12" fill="#e9f9ee" stroke="#16a34a" stroke-width="2" />
  <text x="945" y="210" text-anchor="middle" font-size="13.5" font-weight="700" fill="#15803d">Goal-Net</text>
  <text x="945" y="226" text-anchor="middle" font-size="13.5" font-weight="700" fill="#15803d">Segmentation</text>
  <text x="945" y="244" text-anchor="middle" font-size="11" fill="#64748b">SAM 3-bootstrapped seg</text>

  <rect x="1045" y="186" width="180" height="76" rx="12" fill="#fef2e8" stroke="#ea580c" stroke-width="2" />
  <text x="1135" y="217" text-anchor="middle" font-size="14" font-weight="700" fill="#c2410c">Jersey OCR</text>
  <text x="1135" y="237" text-anchor="middle" font-size="11" fill="#64748b">throttled &#183; every 6 frames</text>

  <!-- perception -> identity arrows -->
  <line x1="185" y1="262" x2="230" y2="298" stroke="#94a3b8" stroke-width="1.5" marker-end="url(#arr)" />
  <line x1="375" y1="262" x2="310" y2="298" stroke="#94a3b8" stroke-width="1.5" marker-end="url(#arr)" />
  <line x1="565" y1="262" x2="540" y2="298" stroke="#94a3b8" stroke-width="1.5" marker-end="url(#arr)" />
  <line x1="755" y1="262" x2="780" y2="298" stroke="#94a3b8" stroke-width="1.5" marker-end="url(#arr)" />
  <path d="M 1135 262 C 1135 300, 640 262, 388 300" fill="none" stroke="#ea580c" stroke-width="1.5" stroke-dasharray="6 4" marker-end="url(#arr-orange)" />
  <text x="760" y="285" text-anchor="middle" font-size="10.5" font-weight="600" fill="#c2410c">guarded ID lock</text>

  <!-- Identity row -->
  <rect x="130" y="302" width="250" height="62" rx="12" fill="#eef4fd" stroke="#3178c6" stroke-width="2" />
  <text x="255" y="327" text-anchor="middle" font-size="14" font-weight="700" fill="#1d4ed8">Tracking &amp; Identity</text>
  <text x="255" y="347" text-anchor="middle" font-size="11" fill="#64748b">Deep-EIoU &#183; OSNet ReID &#183; jersey lock</text>

  <rect x="410" y="302" width="230" height="62" rx="12" fill="#fdecec" stroke="#dc2626" stroke-width="2" />
  <text x="525" y="327" text-anchor="middle" font-size="14" font-weight="700" fill="#b91c1c">Team &amp; Possession</text>
  <text x="525" y="347" text-anchor="middle" font-size="11" fill="#64748b">kit colours &#183; GK handling &#183; ball carrier</text>

  <rect x="670" y="302" width="250" height="62" rx="12" fill="#e6f7f4" stroke="#0d9488" stroke-width="2" />
  <text x="795" y="327" text-anchor="middle" font-size="14" font-weight="700" fill="#0f766e">Pitch Projection</text>
  <text x="795" y="347" text-anchor="middle" font-size="11" fill="#64748b">keypoint homography &#183; 105 &#215; 68 m</text>

  <line x1="380" y1="333" x2="406" y2="333" stroke="#94a3b8" stroke-width="1.5" marker-end="url(#arr)" />

  <!-- identity -> event row arrows -->
  <line x1="255" y1="364" x2="300" y2="416" stroke="#94a3b8" stroke-width="1.5" marker-end="url(#arr)" />
  <line x1="525" y1="364" x2="440" y2="416" stroke="#94a3b8" stroke-width="1.5" marker-end="url(#arr)" />
  <line x1="795" y1="364" x2="760" y2="416" stroke="#94a3b8" stroke-width="1.5" marker-end="url(#arr)" />
  <line x1="945" y1="262" x2="1050" y2="416" stroke="#94a3b8" stroke-width="1.5" marker-end="url(#arr)" />

  <!-- Event row -->
  <rect x="130" y="420" width="420" height="72" rx="12" fill="#fdf6e3" stroke="#d97706" stroke-width="2" />
  <text x="340" y="442" text-anchor="middle" font-size="14" font-weight="700" fill="#b45309">Temporal Event Engine (ActionDetector)</text>
  <text x="340" y="461" text-anchor="middle" font-size="11" fill="#64748b">possession &#183; 12 pass types &#183; shots + xG proxy</text>
  <text x="340" y="477" text-anchor="middle" font-size="11" fill="#64748b">interceptions &#183; recoveries &#183; counters &#183; zone entries &#183; PPDA</text>

  <rect x="600" y="420" width="280" height="72" rx="12" fill="#e6f7f4" stroke="#0d9488" stroke-width="2" />
  <text x="740" y="446" text-anchor="middle" font-size="14" font-weight="700" fill="#0f766e">Physical &amp; Spatial Metrics</text>
  <text x="740" y="466" text-anchor="middle" font-size="11" fill="#64748b">speed &#183; distance &#183; Voronoi pitch control</text>
  <text x="740" y="481" text-anchor="middle" font-size="11" fill="#64748b">team shape &#183; formation</text>

  <rect x="920" y="420" width="270" height="72" rx="12" fill="#e9f9ee" stroke="#16a34a" stroke-width="2" />
  <text x="1055" y="446" text-anchor="middle" font-size="14" font-weight="700" fill="#15803d">Goal Confirmation</text>
  <text x="1055" y="466" text-anchor="middle" font-size="11" fill="#64748b">ball &#8745; goal-net polygon &#183; 12-frame vote</text>
  <text x="1055" y="481" text-anchor="middle" font-size="11" fill="#64748b">&#8594; automatic assist promotion</text>

  <!-- event row -> state bar -->
  <line x1="340" y1="492" x2="340" y2="534" stroke="#94a3b8" stroke-width="1.5" marker-end="url(#arr)" />
  <line x1="740" y1="492" x2="740" y2="534" stroke="#94a3b8" stroke-width="1.5" marker-end="url(#arr)" />
  <line x1="1030" y1="492" x2="1030" y2="534" stroke="#94a3b8" stroke-width="1.5" marker-end="url(#arr)" />

  <!-- Synchronized state bar -->
  <rect x="260" y="538" width="800" height="56" rx="14" fill="#e9f9ee" stroke="#16a34a" stroke-width="2.5" />
  <text x="660" y="561" text-anchor="middle" font-size="15" font-weight="700" fill="#15803d">One Synchronized Match State</text>
  <text x="660" y="580" text-anchor="middle" font-size="11.5" fill="#4b7a5c">60+ KPIs &#183; per-player stats &#183; frame-accurate to the source video</text>

  <!-- fan to outputs -->
  <line x1="660" y1="594" x2="660" y2="616" stroke="#94a3b8" stroke-width="1.5" />
  <line x1="190" y1="616" x2="1130" y2="616" stroke="#94a3b8" stroke-width="1.5" />
  <line x1="190" y1="616" x2="190" y2="644" stroke="#94a3b8" stroke-width="1.5" marker-end="url(#arr)" />
  <line x1="425" y1="616" x2="425" y2="644" stroke="#94a3b8" stroke-width="1.5" marker-end="url(#arr)" />
  <line x1="660" y1="616" x2="660" y2="644" stroke="#94a3b8" stroke-width="1.5" marker-end="url(#arr)" />
  <line x1="895" y1="616" x2="895" y2="644" stroke="#94a3b8" stroke-width="1.5" marker-end="url(#arr)" />
  <line x1="1130" y1="616" x2="1130" y2="644" stroke="#94a3b8" stroke-width="1.5" marker-end="url(#arr)" />

  <!-- Outputs row -->
  <rect x="80" y="648" width="220" height="76" rx="12" fill="#eef4fd" stroke="#3178c6" stroke-width="2" />
  <text x="190" y="679" text-anchor="middle" font-size="13.5" font-weight="700" fill="#1d4ed8">Live Match Centre</text>
  <text x="190" y="699" text-anchor="middle" font-size="11" fill="#64748b">web dashboard &#183; Flask</text>

  <rect x="315" y="648" width="220" height="76" rx="12" fill="#f3eefe" stroke="#8b5cf6" stroke-width="2" />
  <text x="425" y="679" text-anchor="middle" font-size="13.5" font-weight="700" fill="#7c3aed">tracking.mp4</text>
  <text x="425" y="699" text-anchor="middle" font-size="11" fill="#64748b">annotated broadcast view</text>

  <rect x="550" y="648" width="220" height="76" rx="12" fill="#e6f7f4" stroke="#0d9488" stroke-width="2" />
  <text x="660" y="679" text-anchor="middle" font-size="13.5" font-weight="700" fill="#0f766e">tactical_view.mp4</text>
  <text x="660" y="699" text-anchor="middle" font-size="11" fill="#64748b">top-down metric projection</text>

  <rect x="785" y="648" width="220" height="76" rx="12" fill="#fdf6e3" stroke="#d97706" stroke-width="2" />
  <text x="895" y="679" text-anchor="middle" font-size="13.5" font-weight="700" fill="#b45309">AI Match Report</text>
  <text x="895" y="699" text-anchor="middle" font-size="11" fill="#64748b">Full HD dashboard MP4</text>

  <rect x="1020" y="648" width="220" height="76" rx="12" fill="#fef2e8" stroke="#ea580c" stroke-width="2" />
  <text x="1130" y="672" text-anchor="middle" font-size="13.5" font-weight="700" fill="#c2410c">Data Exports</text>
  <text x="1130" y="690" text-anchor="middle" font-size="10.5" fill="#64748b">events.json &#183; tracking.csv &#183; passes.csv</text>
  <text x="1130" y="705" text-anchor="middle" font-size="10.5" fill="#64748b">heatmap &amp; pass-map PNGs</text>
</svg>
